<?xml version="1.0" ?><svg id="Layer_1" style="enable-background:new 0 0 30 30;" version="1.1" viewBox="0 0 30 30" xml:space="preserve" xmlns="http://www.w3.org/2000/svg" xmlns:xlink="http://www.w3.org/1999/xlink"><style type="text/css">
	.st0{fill:#2CC0FE;}
	.st1{opacity:0.33;fill:#B5E7FE;}
	.st2{fill:#A5AAAA;}
	.st3{fill:#69E2DE;}
	.st4{fill:#2DF9EE;}
	.st5{opacity:0.34;fill:#FFFFFF;}
	.st6{fill:#FDFFFF;}
	.st7{fill:#565656;}
	.st8{fill:#348252;}
</style><path d="M447.894,207.354"/><path class="st0" d="M456.389,198.592c0,0-1.19-1.19-4.212,0c0,0-5.861-5.448-11.538,1.282c0,0-8.012-0.183-7.6,7.417  c0,0-9.478,5.54,0.504,10.027c0,0,4.395,6.685,10.256,1.557c0,0,7.509,5.586,10.256-0.824c0,0,6.227,7.326,9.981,0.275  c0,0,6.685,6.501,11.629-0.641c0,0,12.091,4.53,11.355-9.731c0,0-2.198-4.005-5.036-3.73c0,0-1.74-9.615-8.791-7.142  c0,0-8.516-4.212-12.362,1.19C460.83,198.272,457.382,198.106,456.389,198.592z"/><path class="st1" d="M462.395,200.646c0,0,4.891-6.325,9.298,0c0,0,6.838-2.806,8.459,4.196c0.101,0.435,0,1.786,0,1.786  s3.022-0.069,4.739,2.335c0,0,1.648,8.104-8.104,7.211c0,0,0.036-0.57-2.974,2.383l1.852-0.873c0,0,7.917,3.022,11.387-4.327  c0,0,1.959-6.387-4.359-9.134c0,0-2.083-9.546-10.382-7.005c0,0-6.444-4.876-11.046,0.893c0,0-2.678,1.292,0.824,2.535"/><path class="st1" d="M454.02,201.805c0,0-5.002-7.52-9.409-0.939c0,0-6.726-1.981-8.348,5.305c-0.101,0.453,0,1.858,0,1.858  s-3.421-0.391-4.229,2.533c-0.807,2.918-0.129,6.035,9.658,6.478c0.88,0.04,5.185,0.973,0.911,3.402c0,0-0.538-0.348-0.739-0.414  c-3.054-1.017-7.005-0.927-11.69-5.391c0,0-0.932-5.626,3.62-7.978c0,0-0.137-7.337,10.31-8.421c0,0,0.61-4.583,13.693,0.98  c0,0,0.031,1.293-3.471,2.586"/><ellipse class="st1" cx="468.287" cy="202.789" rx="11.538" ry="6.288"/><path class="st1" d="M453.524,203.267c-2.015,1.899-4.165,5.453-9.304,5.453s-9.304-2.441-9.304-5.453  c0-1.815,2.792-2.729,5.723-4.033c1.934-0.86,3.635-2.503,5.677-2.503C451.455,196.73,456.079,200.859,453.524,203.267z"/><path d="M486.513,206.083c-0.927-1.055-1.867-1.767-2.96-2.242c-0.2-0.086-0.401-0.162-0.607-0.229  c-0.564-2.941-1.856-5.064-3.85-6.311c-1.912-1.199-3.968-1.531-6.076-0.942c-0.725-0.672-1.567-1.218-2.462-1.595  c-2.402-1.011-5.142-0.754-7.522,0.696c-0.266,0.163-0.522,0.34-0.723,0.502c-0.76,0.533-1.406,1.203-1.893,1.959  c-0.547-0.068-1.1-0.083-1.685-0.047c-0.356,0.022-0.711,0.091-1.069,0.183c-1.679-0.891-3.461-1.122-5.28-0.618  c-0.694-0.638-1.496-1.158-2.346-1.515c-2.303-0.969-4.936-0.725-7.224,0.669c-0.255,0.155-0.499,0.325-0.693,0.48  c-0.724,0.508-1.339,1.145-1.805,1.864c-0.52-0.064-1.039-0.077-1.594-0.043c-1.002,0.061-1.988,0.403-3.103,1.074  c-1.453,0.876-2.538,2.413-3.138,4.448c-0.205,0.696-0.296,1.459-0.27,2.242c-1.261,0.403-2.368,1.195-3.112,2.244  c-1.852,2.614-1.579,6.073,0.635,8.046c1.068,0.952,2.462,1.451,3.98,1.372c0.954,1.484,2.315,2.565,3.803,3.004  c1.287,0.378,2.42,0.45,3.469,0.221c1.19-0.261,2.226-0.786,3.152-1.599c1.374,1.15,3.248,1.805,5.119,1.805  c0.403,0,0.806-0.03,1.204-0.093c1.572-0.247,3.051-0.961,4.279-2.065c0.812,0.786,1.741,1.383,2.74,1.676  c1.34,0.395,2.522,0.471,3.61,0.231c1.251-0.273,2.339-0.827,3.307-1.687c1.434,1.212,3.397,1.902,5.359,1.902  c0.421,0,0.839-0.031,1.253-0.097c1.919-0.3,3.696-1.269,5.069-2.754c2.938,1.219,6.466,0.786,8.812-1.141  c1.803-1.479,2.994-3.512,3.271-5.579C488.472,209.838,487.871,207.63,486.513,206.083z M450.19,219.922  c-1.926,0.297-4-0.348-5.421-1.802c-0.171-0.181-0.476-0.215-0.724-0.206c-0.249,0.005-0.548,0.187-0.711,0.376  c-0.798,0.818-1.663,1.306-2.721,1.539c-0.752,0.163-1.602,0.1-2.597-0.191c-1.208-0.356-2.323-1.327-3.057-2.666  c-0.176-0.321-0.525-0.509-0.895-0.447c-1.183,0.17-2.334-0.153-3.157-0.889c-1.76-1.569-1.504-4.116-0.371-5.716  c0.631-0.89,1.642-1.518,2.774-1.727c0.46-0.085,0.774-0.516,0.713-0.98c-0.106-0.811-0.056-1.605,0.149-2.3  c0.329-1.119,1.007-2.625,2.359-3.438c0.863-0.52,1.595-0.782,2.303-0.825c0.621-0.035,1.189-0.003,1.775,0.113  c0.39,0.078,0.775-0.114,0.953-0.464c0.355-0.695,0.898-1.313,1.611-1.815c0.179-0.141,0.365-0.27,0.559-0.388  c1.801-1.097,3.853-1.298,5.628-0.55c0.795,0.335,1.539,0.852,2.15,1.497c0.239,0.252,0.7,0.305,1.024,0.188  c0.956-0.34,1.914-0.369,2.865-0.152c-1.453,0.923-2.548,2.484-3.157,4.548c-0.216,0.734-0.31,1.54-0.28,2.364  c-1.324,0.416-2.487,1.245-3.265,2.344c-1.926,2.717-1.643,6.314,0.659,8.366c1.116,0.995,2.61,1.491,4.158,1.424  c0.03,0.048,0.069,0.086,0.1,0.133c-0.009,0.008-0.021,0.01-0.03,0.018C452.604,219.157,451.431,219.727,450.19,219.922z   M486.42,211.911c-0.219,1.631-1.183,3.255-2.644,4.454c-1.987,1.628-5.084,1.896-7.527,0.642c-0.365-0.189-0.826-0.096-1.088,0.233  c-1.15,1.437-2.721,2.375-4.421,2.642c-2.045,0.313-4.217-0.367-5.713-1.899c-0.157-0.167-0.429-0.204-0.665-0.204  c-0.021,0-0.043,0-0.062,0.001c-0.251,0.006-0.552,0.191-0.715,0.381c-0.843,0.864-1.756,1.379-2.869,1.623  c-0.792,0.174-1.689,0.108-2.737-0.201c-1.275-0.374-2.451-1.398-3.225-2.809c-0.175-0.321-0.524-0.499-0.895-0.447  c-1.257,0.175-2.468-0.164-3.336-0.938c-1.86-1.659-1.591-4.349-0.394-6.038c0.665-0.939,1.733-1.604,2.928-1.823  c0.46-0.085,0.775-0.516,0.713-0.981c-0.114-0.853-0.059-1.691,0.157-2.422c0.347-1.178,1.06-2.763,2.487-3.624  c0.906-0.546,1.677-0.822,2.428-0.868c0.654-0.044,1.251-0.003,1.867,0.118c0.401,0.077,0.775-0.114,0.953-0.463  c0.376-0.734,0.949-1.386,1.7-1.914c0.187-0.148,0.382-0.284,0.588-0.409c1.897-1.155,4.056-1.367,5.926-0.578  c0.841,0.354,1.625,0.898,2.262,1.575c0.238,0.251,0.702,0.3,1.03,0.188c1.661-0.588,3.385-0.367,4.996,0.643  c1.663,1.043,2.721,2.946,3.142,5.654c0.056,0.354,0.32,0.64,0.67,0.721c0.298,0.07,0.592,0.164,0.878,0.288  c0.856,0.372,1.577,0.924,2.337,1.79C486.214,208.408,486.663,210.109,486.42,211.911z"/><g><path d="M26.647,7.381c-0.152-0.262-0.413-0.365-0.62-0.244c-0.203,0.119-0.243,0.403-0.095,0.658   c0.109,0.189,0.274,0.295,0.435,0.295c0.062,0,0.124-0.016,0.182-0.05c0.068-0.039,0.153-0.154,0.173-0.229   C26.756,7.681,26.73,7.525,26.647,7.381C26.647,7.381,26.647,7.381,26.647,7.381z"/><path d="M28.011,8.357c-0.135-0.048-0.275-0.032-0.385,0.044c-0.204,0.14-0.239,0.431-0.082,0.662   c0.065,0.095,0.158,0.168,0.261,0.205c0.051,0.018,0.103,0.027,0.154,0.027c0.083,0,0.163-0.024,0.232-0.072   c0.204-0.141,0.24-0.432,0.082-0.662C28.206,8.467,28.114,8.394,28.011,8.357z"/><path d="M28.368,4.154c0.134,0,0.256-0.045,0.347-0.137c0.235-0.234,0.161-0.663-0.172-0.996c-0.332-0.334-0.76-0.41-0.994-0.173   c-0.235,0.234-0.16,0.663,0.173,0.996C27.924,4.047,28.162,4.154,28.368,4.154z"/><g><path class="st2" d="M11.907,4.154l5.83-1.136l0.814-0.144l0.205-0.613h0.677l0.861,1.662l-0.144,0.761l-0.513-0.103H18.92    l-5.127,3.51l-0.185,0.953l-0.595,0.576c0,0-0.451-0.452-0.472-0.555c-0.021-0.103-1.066-2.53-1.066-2.53l-0.759-1.76    l-0.546-1.037C10.172,3.737,11.005,3.089,11.907,4.154z"/><path class="st3" d="M20.469,3.079c0,0,2.033-1.524,4.522-0.555c0,0,0.707,0.37-0.154,0.74l3.071,2.005    c0,0,0.821,0.802-0.495,0.617l1.699,2.005l-1.205-0.303l-1.171-1.486l-0.762-0.031L25.39,6.596l-1.292-1.234l-3.63-1.93V3.079z"/><path class="st4" d="M20.459,3.261c0,0,3.406-0.583,5.384,2.929c0,0,0.123,0.741-2.59-1.278c0,0-1.987-1.346-2.859-1.367    L20.459,3.261z"/><path class="st5" d="M25.444,4.067c-0.225,0.511-1.235,0.558-2.255,0.106c-1.02-0.453-3.019-0.523-2.794-1.033    s2.992-1.182,4.012-0.73C25.427,2.862,25.669,3.556,25.444,4.067z"/><path class="st6" d="M18.856,3.03c0,0-2.765,1.454-6.569,1.744L10.871,5.64c0,0-1.384-1.948,0-2.208l1.084,0.967l1.038-0.61    L18.856,3.03z"/><polygon class="st7" points="19.533,4.154 12.243,8.33 13.014,9.619 13.609,8.924 13.747,8.33   "/><path class="st5" d="M16.199,4.642c0.366,0.577-0.147,1.562-1.147,2.2s-1.77,1.334-2.136,0.757s-1.121-2.724-0.122-3.362    S15.833,4.065,16.199,4.642z"/><path class="st8" d="M11.34,7.501c0,0-5.886,2.571-3.056,5.203s8.162,3.27,8.162,3.27s3.568,2.057,1.21,4.134    c0,0-8.408,3.743-12.55,1.111c0,0-4.286-1.481-2.974-3.723c0,0,2.707-2.818,6.296-2.53l2.051,0.555l-0.39,0.494l-6.091,1.357    c0,0-3.302,2.386,4.183,3.352c0,0,5.024,0.782,7.813-0.987c0,0,1.887-1.008,0.82-2.057l-4.471-1.707c0,0-2.727-0.823-3.691-1.399    c0,0-5.434-3.291-0.82-6.664l3.179-1.707l0.574,1.193L11.34,7.501z"/><path class="st8" d="M3.788,17.779c0,0,1.2-1.573,3.876-1.635l7.183,0.386l2.138,1.681l-0.231,1.003l-0.631-0.71    c0,0-0.769-0.355-0.815-0.37c-0.046-0.015-1.246-0.339-1.246-0.339l-2.322-0.293L9.525,17.24l-3.999,0.339l-1.738,0.756    c0,0-0.523,0.108-0.477,0.062C3.357,18.35,3.788,17.779,3.788,17.779z"/><path class="st8" d="M3.711,18.674c0,0,6.198-3.594,12.72,0.309l-0.277,0.586l-2.738-0.74c0,0-7.26-0.494-7.906,0.062l-1.2,0.602    l-0.677-0.416L3.711,18.674z"/><path class="st8" d="M4.741,19.569c0,0,4.86-2.36,10.689,0.093l-1.215,0.586c0,0-6.475-1.496-8.551-0.185l-1.046-0.17    L4.741,19.569z"/><path class="st8" d="M16.835,20.664c0,0-6.691,2.447-13.527,0.165l-1.853-2.756c0,0-0.882,1.645,0,2.386    c0,0,2.625,2.777,8.982,2.818c0,0,5.209-0.247,6.706-2.18C18.64,19.163,16.835,20.664,16.835,20.664z"/><path class="st8" d="M3.634,22.844c0,0,7.027,3.867,14.103-0.452c0,0,1.405-0.977,0.405-2.823c0,0-0.794,2.35-3.132,2.823    c0,0-7.26,0.905-10.11-0.103l-1.843-0.697L3.634,22.844z"/><path class="st8" d="M1.677,21.095c0,0,2.418,3.242,8.347,3.334l8.113-1.667c0,0-3.015,2.468-5.414,2.468    c0,0-5.85,1.189-9.416-0.794C3.308,24.436,0.628,22.699,1.677,21.095z"/><path class="st8" d="M0.496,27.328v0.848c0,0,7.306-0.139,7.49-0.247s5.291-1.435,5.291-1.435s3.553-1.48,3.722-2.059    l-5.214,1.534l-4.137,0.91l-3.845,0.077L0.496,27.328z"/><path d="M28.723,6.787L28.01,6.117c0.114-0.049,0.219-0.137,0.267-0.278c0.107-0.307-0.1-0.653-0.694-1.159    c-0.056-0.046-1.112-0.918-2.111-1.476c0.003-0.003,0.006-0.007,0.009-0.01c0.096-0.119,0.185-0.329,0.06-0.655    c-0.022-0.058-0.062-0.107-0.113-0.141c-0.071-0.047-1.786-1.129-5.318,0.371l-0.185-0.439c-0.082-0.196-0.236-0.349-0.434-0.429    c-0.196-0.081-0.413-0.08-0.609,0.003c-0.251,0.107-0.397,0.373-0.444,0.641l-6.73,1.297l-0.086-0.192    c-0.176-0.394-0.642-0.572-1.034-0.396l-0.161,0.072c-0.394,0.177-0.571,0.643-0.395,1.037l0.684,1.531    c-4.701,1.962-5.223,4.308-4.839,5.883c0.009,0.09,0.184,1.494,2.131,2.862c-2.743,0.297-4.876,1.129-5.921,2.342    c-0.117,0.136-0.217,0.273-0.302,0.412c-0.016,0.011-0.037,0.007-0.052,0.022c-0.431,0.437-0.671,0.742-0.876,1.295    c-0.254,0.685-0.146,1.371,0.291,1.994c-0.03,0.062-0.065,0.122-0.089,0.187c-0.286,0.771-0.108,1.571,0.513,2.316    c1.446,1.73,4.884,2.846,8.258,2.846c0.1,0,0.198-0.011,0.298-0.013c-2.538,0.591-5.884,1.055-9.681,0.782    c-0.081-0.009-0.162,0.022-0.223,0.078c-0.06,0.056-0.094,0.135-0.094,0.217v1.06c0,0.16,0.127,0.291,0.286,0.296    C1.05,28.491,1.658,28.5,2.245,28.5c8.93,0,12.963-2.034,14.779-3.803c1.286-1.253,1.547-2.425,1.602-2.874    c0.009-0.015,0.023-0.029,0.031-0.044c0.418-0.75,0.429-1.602,0.046-2.531c0.19-0.508,0.204-1.015,0.019-1.494    c-0.614-1.591-3.038-2.395-4.43-2.734c-1.633-0.384-5.956-1.793-6.345-3.673c-0.153-0.741,0.338-1.543,1.468-2.384    c0.233-0.137,0.94-0.556,2.07-1.058c0.038-0.017,0.069-0.042,0.097-0.069l0.763,1.707c0.086,0.191,0.24,0.337,0.436,0.412    c0.091,0.035,0.185,0.052,0.279,0.052c0.109,0,0.217-0.023,0.318-0.069l0.161-0.072c0,0,0,0,0.001,0    c0.393-0.177,0.57-0.643,0.394-1.037l-0.139-0.312l5.678-3.675c0.141,0.105,0.291,0.179,0.448,0.179    c0.084,0,0.168-0.016,0.248-0.051c0.195-0.082,0.347-0.237,0.428-0.434c0.081-0.198,0.08-0.415-0.003-0.611l-0.017-0.041    c0.679,0.127,1.797,0.542,3.324,1.818c0.606,0.561,1.417,1.196,1.882,1.039c0.146-0.05,0.252-0.166,0.296-0.324    c0.022-0.037,0.037-0.075,0.043-0.108c0.002-0.008,0.003-0.016,0.005-0.025l0.38,0.282l1.478,1.386    c0.22,0.176,0.616,0.45,0.941,0.45c0.038,0,0.076-0.004,0.112-0.012c0.103-0.023,0.19-0.079,0.252-0.16    c0.042-0.033,0.077-0.073,0.096-0.114C29.488,7.901,29.416,7.608,28.723,6.787z M1.504,18.952c0.003-0.008,0.006-0.013,0.009-0.02    c0.287,1.21,1.796,2.986,8.022,3.442c0.336,0.025,0.669,0.037,1,0.037c2.547,0,4.881-0.693,6.358-1.445    c-0.854,0.911-2.456,1.494-4.802,1.732c-4.373,0.449-9.009-0.592-10.332-2.309C1.401,19.924,1.318,19.454,1.504,18.952z     M18.056,21.441c-0.633,1.134-2.543,1.958-5.522,2.384c-3.188,0.457-6.684-0.154-8.675-1.323c1.677,0.625,3.866,0.989,6.154,0.989    c0.71,0,1.43-0.035,2.146-0.107c3.445-0.35,5.455-1.45,5.998-3.259c0.026-0.025,0.057-0.05,0.08-0.075    C18.344,20.561,18.287,21.027,18.056,21.441z M2.102,22.764c-0.416-0.498-0.55-0.993-0.429-1.478    c0.034,0.03,0.064,0.06,0.099,0.09c0.978,2.093,4.923,3.285,8.638,3.285c0.759,0,1.508-0.05,2.22-0.151    c1.803-0.258,3.215-0.661,4.257-1.195c-0.895,0.806-2.471,1.435-4.699,1.842C8.059,25.92,3.557,24.503,2.102,22.764z     M0.722,27.889v-0.455c6.701,0.411,12.01-1.409,13.889-2.164c0.644-0.208,1.198-0.446,1.681-0.708    C14.308,26.27,10.024,28.108,0.722,27.889z M11.207,7.272c-1.167,0.518-1.9,0.952-2.21,1.138C7.64,9.424,7.06,10.46,7.273,11.487    c0.558,2.694,6.605,4.145,6.86,4.205c2.111,0.512,3.587,1.377,3.948,2.311c0.179,0.465,0.094,0.946-0.261,1.471    c-0.421,0.625-3.811,2.536-8.236,2.211c-6.516-0.478-7.373-2.347-7.44-3.127c-0.029-0.343,0.136-0.742,0.464-1.123    C3.1,16.865,4.701,15.513,9,15.246c0.313,0.165,0.66,0.325,1.039,0.48c-1.84,0.018-3.571,0.281-4.881,0.747    c-1.464,0.521-2.236,1.224-2.231,2.035c0.003,0.518,0.326,0.988,0.94,1.392c0.046,0.047,0.1,0.082,0.162,0.097    c0.32,0.189,0.699,0.365,1.152,0.52c0.035,0.012,0.077,0.02,0.112,0.032c0.049,0.028,0.103,0.044,0.16,0.045    c1.271,0.395,2.872,0.617,4.581,0.617c0.04,0,0.08,0,0.12-0.001c2.28-0.013,4.644-0.437,6.015-1.224    c0.007-0.003,0.012-0.007,0.018-0.011c0.72-0.418,1.166-0.935,1.163-1.55c-0.007-1.239-1.826-2.067-4.096-2.453    c-0.012-0.004-0.022-0.012-0.035-0.015c-6.249-1.31-6.652-4.218-6.664-4.293c-0.48-1.983,1.015-3.712,4.442-5.138l0.322,0.721    C11.282,7.25,11.244,7.256,11.207,7.272z M14.491,19.944c-1.272-0.441-2.883-0.686-4.574-0.686c-0.032,0-0.064,0-0.096,0.001    c-1.572,0.008-3.101,0.234-4.336,0.627c-0.026-0.008-0.057-0.014-0.082-0.023c-0.184-0.063-0.352-0.131-0.51-0.2    c1.246-0.519,3.112-0.839,5.091-0.851c2.088,0.024,4.023,0.324,5.268,0.865C15.024,19.773,14.767,19.861,14.491,19.944z     M13.064,20.273c-0.859,0.148-1.838,0.241-2.914,0.247c-1.141,0.002-2.24-0.1-3.224-0.282c0.9-0.177,1.886-0.283,2.9-0.289    C10.964,19.946,12.074,20.063,13.064,20.273z M3.738,18.859c1.096-0.757,3.399-1.268,5.897-1.283    c3.449-0.015,5.873,0.831,6.404,1.688c-0.01,0.007-0.02,0.014-0.03,0.021c-1.299-0.734-3.555-1.207-6.028-1.163    c-2.36,0.014-4.507,0.436-5.833,1.131C3.968,19.125,3.827,18.992,3.738,18.859z M16.553,18.773    c-0.948-1.245-3.975-1.888-6.815-1.888c-0.036,0-0.072,0-0.107,0.001c-2.323,0.013-4.445,0.434-5.766,1.101    c0.287-0.307,0.812-0.609,1.522-0.863c1.259-0.447,2.942-0.7,4.739-0.711c0.038,0,0.076,0,0.114,0    c1.039,0,1.986,0.082,2.821,0.217c0.006,0.001,0.01,0.003,0.016,0.004c0.007,0.001,0.013,0.001,0.02,0.002    c2.184,0.36,3.56,1.1,3.565,1.794C16.663,18.543,16.623,18.658,16.553,18.773z M13.299,9.326l-0.161,0.072    c-0.046,0.021-0.099,0.02-0.147,0.004c-0.048-0.019-0.086-0.054-0.107-0.101l-2.314-5.178c-0.043-0.095,0.001-0.212,0.097-0.255    l0.161-0.072c0.025-0.011,0.05-0.016,0.076-0.016c0.074,0,0.146,0.043,0.177,0.113l2.313,5.177    C13.439,9.168,13.396,9.282,13.299,9.326z M20.051,4.312c-0.021,0.051-0.06,0.091-0.11,0.112    c-0.054,0.022-0.152-0.046-0.223-0.149c-0.093-0.135-0.277-0.167-0.41-0.076c-0.028,0.019-0.032,0.053-0.05,0.078L13.551,7.97    l-1.596-3.571l6.817-1.314c0.035-0.007,0.054-0.037,0.082-0.054c0.034-0.02,0.07-0.03,0.093-0.061    c0.024-0.032,0.024-0.07,0.034-0.109c0.008-0.032,0.032-0.058,0.029-0.093c-0.012-0.139,0.06-0.298,0.1-0.316    c0.049-0.021,0.106-0.022,0.157,0c0.052,0.021,0.091,0.06,0.112,0.11l0.67,1.594C20.072,4.205,20.072,4.261,20.051,4.312z     M28.371,7.504l-1.486-1.392l-1.683-1.252c-0.053-0.04-0.114-0.058-0.176-0.058c-0.083,0-0.164,0.034-0.222,0.101    c-0.102,0.116-0.097,0.291,0.011,0.402c0.456,0.468,0.626,0.723,0.689,0.843c-0.252-0.103-0.759-0.471-1.212-0.89    c-1.727-1.443-3.007-1.893-3.833-1.995c2.635-1.087,4.114-0.61,4.524-0.428c-0.072,0.018-0.207,0.022-0.314,0.005    c-0.146-0.021-0.296,0.072-0.333,0.22c-0.037,0.148,0.043,0.301,0.187,0.352c1.031,0.364,2.667,1.713,2.68,1.724    c0.182,0.155,0.299,0.273,0.374,0.36l-0.413-0.133c-0.132-0.041-0.276,0.013-0.345,0.132c-0.07,0.12-0.048,0.271,0.053,0.366    l1.424,1.333c0.201,0.239,0.327,0.409,0.406,0.527C28.594,7.662,28.47,7.582,28.371,7.504z"/></g></g></svg>